<svg width="192" height="91" xmlns="http://www.w3.org/2000/svg" xmlns:xlink="http://www.w3.org/1999/xlink"><defs><path id="a" d="M.528.462h191.411v89.821H.528z"/><path id="c" d="M.467.665h9.628v9.52H.467z"/><path id="e" d="M.467.665h9.628v9.52H.467z"/><path id="g" d="M.35.155h7.306v7.011H.35z"/><path id="i" d="M.35.155h7.306v7.013H.35z"/></defs><g fill="none" fill-rule="evenodd"><mask id="b" fill="#fff"><use xlink:href="#a"/></mask><path d="M.528-4.58h191.41v-69.756H.528V-4.58zm191.411 0H.528c0 52.39 42.849 94.863 95.706 94.863 52.856 0 95.705-42.472 95.705-94.864z" fill="#005C9C" mask="url(#b)"/><path d="M139.15 34.563l2.804-2.136c.667.951 1.724 1.555 2.964 1.555 1.931 0 3.47-1.463 3.47-3.32v-.093l2.69 3.297c-.276.58-.76 1.069-1.15 1.462-1.332 1.278-3.079 2.044-5.01 2.044-1.908 0-3.745-.766-4.987-2.044-.298-.185-.482-.487-.78-.765zm14.822 2.809c-2.114 2.53-5.376 4.179-9.054 4.179-3.745 0-7.1-1.74-9.215-4.458l2.873-2.158c.299.393.575.695.873.974 1.333 1.37 3.355 2.137 5.469 2.137 2.137 0 4.045-.768 5.492-2.137.392-.37.874-.86 1.15-1.463l2.412 2.926z" fill="#FFFFFE"/><path d="M144.918 37.372a7.255 7.255 0 01-2.743-.543 6.673 6.673 0 01-2.243-1.5c-.185-.115-.326-.274-.475-.443l-.306-.323 2.804-2.136a3.582 3.582 0 002.963 1.555l.216-.006-.216.006a3.582 3.582 0 01-2.963-1.555l-2.804 2.136.306.323c.149.169.29.328.475.443 1.243 1.279 3.107 2.043 4.986 2.043 1.856 0 3.635-.725 5.01-2.043.39-.394.873-.883 1.149-1.463l-2.688-3.297v.094l-.007.215.007-.215v-.094l2.688 3.297c-.276.58-.76 1.07-1.15 1.463a7.371 7.371 0 01-2.28 1.5 7.06 7.06 0 01-2.729.543m8.943.133l.112-.133-2.414-2.926c-.261.574-.706 1.043-1.148 1.463l-.233.212.233-.212c.442-.42.887-.889 1.148-1.463l2.414 2.926-.112.133m-8.943.541l-.193-.003c.182.005.366.003.546-.005l-.353.008m0 3.505a11.716 11.716 0 01-5.22-1.21 11.554 11.554 0 01-3.994-3.248l2.873-2.158c.282.372.56.682.873.974l.115.117-.115-.117a7.458 7.458 0 01-.873-.974l-2.873 2.158c2.173 2.792 5.618 4.458 9.214 4.458m-54.254 7.964h3.561v.116c0 1.834 1.633 3.297 3.563 3.297 1.838 0 3.654-1.463 3.562-3.413V37.767c0-1.858-1.632-3.32-3.47-3.32-1.93 0-3.562 1.556-3.562 3.412 0 1.858 1.631 3.297 3.561 3.297 1.059 0 1.932-.487 2.597-1.16v3.992c-.758.28-1.724.582-2.597.582-2.02 0-3.744-.79-5.009-2.043-1.24-1.161-2.113-2.81-2.113-4.668 0-1.856.873-3.506 2.113-4.759a7.344 7.344 0 015.01-1.95c1.93 0 3.653.789 5.01 1.95 1.24 1.253 2.022 2.903 2.022 4.76l-.092 11.655v.116c0 1.834-.783 3.482-2.023 4.666-1.355 1.255-3.079 2.02-5.009 2.02-2.022 0-3.746-.765-5.01-2.02-1.24-1.184-2.114-2.832-2.114-4.666v-.116zm7.215-22.637c6.158 0 11.26 4.76 11.445 10.68v11.865c.114 6.522-5.676 11.098-11.536 11.098-6.343 0-11.445-4.878-11.445-10.89v-.116h3.654v.116c0 2.042.873 3.877 2.299 5.248 1.355 1.347 3.377 2.135 5.492 2.135 2.114 0 4.044-.788 5.491-2.135 1.333-1.37 2.299-3.206 2.299-5.248l.092-11.772c0-2.043-.965-3.993-2.298-5.34-1.448-1.277-3.378-2.135-5.493-2.135-2.113 0-4.136.858-5.468 2.135a7.338 7.338 0 00-2.321 5.34c0 2.044.873 3.879 2.32 5.248 1.333 1.37 3.356 2.136 5.47 2.136.872 0 1.838-.186 2.596-.396v3.6c-.85.208-1.724.302-2.597.302-6.341 0-11.443-4.853-11.443-10.89 0-6.037 5.102-10.981 11.443-10.981z" fill="#FFFFFE"/><path d="M103.636 32.8l-.265-.281c-1.561-1.378-3.51-2.136-5.49-2.136-2.03 0-4.075.8-5.47 2.136l-.13.124.13-.124c1.395-1.337 3.44-2.136 5.47-2.136 1.98 0 3.929.758 5.49 2.136l.265.28m-11.424 9.02a6.687 6.687 0 01-.863-1.364 6.036 6.036 0 01-.593-2.596c0-.886.2-1.763.593-2.606a7.682 7.682 0 011.522-2.154 7.412 7.412 0 012.22-1.41 7.37 7.37 0 012.79-.54l.264.005-.265-.005c-1.862 0-3.64.692-5.009 1.95-1.363 1.378-2.115 3.069-2.115 4.76 0 1.407.523 2.807 1.456 3.96m.838.88l-.179-.173-.227-.221.227.221.179.172m-.523.525l-.117-.116a7.501 7.501 0 01-1.703-2.372 6.96 6.96 0 01-.616-2.876c0 1.968.823 3.832 2.32 5.248l.116.116m5.353 1.346l-.303-.006.303.006c.912 0 1.919-.33 2.597-.58v-3.993c-.751.759-1.65 1.16-2.597 1.16a3.692 3.692 0 01-2.504-.952c-.682-.622-1.059-1.453-1.059-2.345 0-.453.096-.896.286-1.317.182-.404.442-.77.773-1.086a3.645 3.645 0 012.504-1.01l.14.003-.14-.003c-1.931 0-3.563 1.563-3.563 3.413 0 1.818 1.6 3.298 3.563 3.298.946 0 1.846-.402 2.597-1.161v3.993c-.678.25-1.685.58-2.597.58m11.443 5.191V37.557c-.183-5.888-5.317-10.68-11.443-10.68-6.31 0-11.445 4.927-11.445 10.982 0 6.005 5.134 10.89 11.445 10.89.908 0 1.78-.102 2.597-.303v-3.598c-.535.146-1.584.394-2.597.394l-.193-.002.193.002c1.013 0 2.062-.248 2.597-.394v3.598c-.816.2-1.69.302-2.597.302-1.552 0-3.053-.287-4.464-.85a11.463 11.463 0 01-3.637-2.33 10.807 10.807 0 01-2.446-3.46 10.416 10.416 0 01-.898-4.25c0-1.475.302-2.909.898-4.262a10.952 10.952 0 012.446-3.491 11.427 11.427 0 013.637-2.36 11.765 11.765 0 014.464-.868c1.506 0 2.972.282 4.36.837a11.532 11.532 0 013.602 2.284c1.05.98 1.884 2.12 2.482 3.393.618 1.317.954 2.72 1 4.166V49.76m-4.566.766a6.55 6.55 0 00.061-.895v-.117l.093-11.655c0-1.752-.72-3.441-2.023-4.76a7.164 7.164 0 011.477 2.154c.362.828.546 1.705.546 2.606l-.093 11.67v.102c0 .301-.02.6-.061.895m-10.358.125a3.046 3.046 0 01-.174-1.02v-.117h-3.562v.117-.117h3.562v.117c0 .355.06.698.174 1.02m3.388 2.276l-.314-.012.314.012a3.786 3.786 0 002.702-1.168c.593-.628.898-1.425.86-2.245V37.767c0-1.28-.803-2.416-1.942-2.969.327.158.631.363.896.612.675.631 1.047 1.47 1.047 2.357v11.747c.037.82-.268 1.617-.86 2.245a3.786 3.786 0 01-2.703 1.168m-4.816 1.555l-.193-.184-.216-.215.216.215.193.184m4.816 1.835l-.335-.007.335.007c1.848 0 3.58-.699 5.009-2.019l.34-.35-.34.35c-1.429 1.32-3.16 2.019-5.01 2.019m0 .697l-.184-.002.185.002a8.04 8.04 0 005.492-2.135c1.48-1.524 2.297-3.387 2.297-5.248l.093-11.772c0-1.527-.562-3.125-1.537-4.45.349.474.649.988.887 1.519.43.963.65 1.948.65 2.93l-.093 11.773c0 1.86-.815 3.724-2.297 5.248-1.481 1.377-3.43 2.135-5.492 2.135m0 3.506c-1.55 0-3.052-.289-4.464-.856a11.413 11.413 0 01-3.636-2.334 10.793 10.793 0 01-2.448-3.462 10.4 10.4 0 01-.896-4.237v-.117h3.654v.117c0 1.96.817 3.822 2.299 5.248l.112.11-.112-.11c-1.482-1.426-2.299-3.289-2.299-5.248v-.117h-3.654v.117c0 6.004 5.134 10.89 11.444 10.89 3.145 0 6.338-1.352 8.538-3.614l.196-.206-.196.206a12.033 12.033 0 01-3.906 2.657 11.987 11.987 0 01-4.632.956" fill="#FFFFFE"/><g transform="translate(37 27.28)"><mask id="d" fill="#fff"><use xlink:href="#c"/></mask><path d="M5.27 3.104c-.667 0-1.333.185-1.815.674-.484.394-.69.974-.69 1.648 0 .673.206 1.276.69 1.648.482.488 1.148.697 1.815.697.78 0 1.355-.21 1.839-.697.482-.372.758-.975.758-1.648 0-.674-.276-1.254-.758-1.648-.484-.489-1.058-.674-1.84-.674m0-2.439c1.356 0 2.505.58 3.379 1.371.965.86 1.447 2.044 1.447 3.39 0 1.37-.482 2.53-1.447 3.413-.874.766-2.023 1.347-3.378 1.347-1.24 0-2.505-.581-3.355-1.347C1.04 7.957.467 6.796.467 5.426c0-1.346.574-2.53 1.448-3.39.85-.79 2.115-1.37 3.355-1.37" fill="#FFFFFE" mask="url(#d)"/></g><g transform="translate(37 27.28)"><mask id="f" fill="#fff"><use xlink:href="#e"/></mask><path d="M5.27 3.104c-.524 0-1.265.116-1.815.674-.458.374-.69.928-.69 1.648 0 .732.239 1.3.69 1.648.443.45 1.09.697 1.815.697.795 0 1.362-.214 1.839-.697.48-.37.758-.972.758-1.648 0-.664-.27-1.25-.758-1.648-.461-.466-1.03-.674-1.84-.674m0 4.667c-.725 0-1.37-.247-1.814-.697-.451-.347-.69-.916-.69-1.648 0-.72.232-1.274.69-1.648.55-.558 1.29-.674 1.815-.674.81 0 1.378.208 1.839.674.488.399.758.984.758 1.648 0 .676-.278 1.278-.758 1.648-.477.483-1.044.697-1.84.697m0-7.106c-1.158 0-2.444.527-3.354 1.371C.98 2.955.467 4.16.467 5.426c0 1.276.501 2.455 1.448 3.413.922.83 2.207 1.347 3.355 1.347 1.522 0 2.678-.734 3.378-1.347.96-.879 1.447-2.027 1.447-3.413 0-1.374-.501-2.547-1.447-3.39-.692-.624-1.84-1.37-3.378-1.37m0 9.52c-1.148 0-2.433-.517-3.355-1.347C.968 7.881.467 6.702.467 5.426c0-1.267.514-2.471 1.448-3.39C2.825 1.19 4.11.666 5.27.666c1.539 0 2.686.746 3.378 1.37.948.843 1.447 2.016 1.447 3.39 0 1.386-.486 2.534-1.447 3.413-.7.613-1.856 1.347-3.378 1.347" fill="#FFFFFE" mask="url(#f)"/></g><g transform="translate(154.772 44.6)"><mask id="h" fill="#fff"><use xlink:href="#g"/></mask><path d="M3.245 3.267h.758c.391 0 .575 0 .782-.094.184-.092.275-.185.275-.487 0-.395-.367-.487-.942-.487h-.873v1.068zm0 .697v1.438H2.67V1.618h1.54c.483 0 .85.092 1.148.302.185.185.299.487.299.86 0 .208 0 .393-.114.578-.092.117-.185.302-.368.396-.206 0-.206.093-.39.093l.758 1.555h-.667l-.665-1.438h-.966zM1.132 3.66c0 .489.09.976.367 1.465.298.487.597.766 1.079 1.067.46.28.943.394 1.425.394.575 0 1.057-.115 1.448-.394.482-.301.873-.58 1.057-1.067.298-.489.39-.976.39-1.465 0-.487 0-.766-.183-1.16-.115-.395-.39-.696-.597-.975-.276-.185-.575-.395-.943-.58-.39-.093-.69-.209-1.172-.209-.367 0-.758.116-1.15.208-.275.186-.574.396-.872.58a3.32 3.32 0 00-.666.977c-.092.393-.183.766-.183 1.16zm2.871 3.506c-.482 0-.85-.091-1.333-.301-.298-.092-.482-.186-.69-.28a1.43 1.43 0 00-.481-.393c-.367-.395-.668-.79-.759-1.16C.557 4.635.35 4.148.35 3.66c0-.487.207-.974.39-1.461.184-.395.392-.768.759-1.07.298-.277.69-.578 1.171-.672.369-.21.851-.302 1.333-.302s.966.092 1.448.302c.391.094.78.395 1.15.673.298.301.574.674.78 1.069.183.487.276.974.276 1.461 0 .489-.093.976-.276 1.371-.206.37-.482.766-.78 1.161a6.428 6.428 0 01-1.15.673c-.482.21-.966.301-1.448.301z" fill="#FFFFFE" mask="url(#h)"/></g><g transform="translate(154.772 44.6)"><mask id="j" fill="#fff"><use xlink:href="#i"/></mask><path d="M3.245 2.198v1.068h.758c.394 0 .575 0 .782-.093.187-.094.275-.19.275-.487 0-.429-.453-.488-.942-.488h-.873zm.758 1.068h-.758V2.198h.873c.489 0 .942.06.942.488 0 .296-.088.393-.275.487-.207.093-.388.093-.782.093zM2.67 1.618v3.785h.575v-1.44h.966l.665 1.44h.667l-.758-1.556.182-.045.208-.049.302-.302.066-.091c.114-.187.114-.37.114-.581 0-.36-.105-.666-.299-.86-.293-.206-.659-.301-1.147-.301H2.67zm2.873 3.785h-.667l-.665-1.44h-.966v1.44H2.67V1.618h1.54c.49 0 .855.095 1.148.302.194.193.299.498.299.859 0 .212 0 .394-.114.58l-.066.092-.302.302-.208.05-.182.044.758 1.556zM4.003.736c-.303 0-.63.08-.945.159l-.204.049-.208.143c-.217.145-.44.298-.665.437a3.32 3.32 0 00-.666.976l-.015.063c-.087.372-.168.724-.168 1.098 0 .546.12 1.025.367 1.463.284.464.576.753 1.079 1.068.432.262.912.393 1.425.393.602 0 1.076-.128 1.448-.393.469-.294.872-.576 1.057-1.068.266-.434.39-.9.39-1.463 0-.493 0-.766-.183-1.16-.095-.324-.3-.59-.48-.822l-.117-.155-.084-.055c-.249-.168-.528-.358-.859-.525L4.923.88c-.28-.074-.545-.144-.92-.144zm0 5.85a2.71 2.71 0 01-1.425-.394c-.503-.315-.795-.604-1.08-1.068a2.903 2.903 0 01-.366-1.463c0-.374.08-.726.168-1.099l.015-.062a3.32 3.32 0 01.666-.976c.225-.139.448-.292.665-.438l.208-.142.204-.05c.315-.078.642-.158.945-.158.375 0 .64.07.92.144l.252.064c.331.167.61.357.859.523l.084.057.117.155c.18.232.386.498.48.821.184.395.184.668.184 1.161 0 .563-.124 1.029-.391 1.463-.185.492-.588.774-1.057 1.068-.372.265-.846.393-1.448.393zm0-6.431c-.518 0-.99.107-1.333.302-.508.098-.912.431-1.171.674-.351.287-.557.634-.759 1.067l-.056.148c-.164.431-.335.877-.335 1.315 0 .466.189.933.391 1.37.08.323.322.692.759 1.16.194.088.376.262.482.394l.097.045c.167.077.34.157.592.236.51.22.87.302 1.333.302.498 0 .985-.102 1.448-.302a6.63 6.63 0 001.15-.674c.342-.453.598-.833.78-1.161.178-.38.276-.868.276-1.37 0-.485-.093-.977-.276-1.463a4.5 4.5 0 00-.78-1.067l-.03-.023C6.207.832 5.83.547 5.45.457 4.988.257 4.5.155 4.003.155zm0 7.013c-.463 0-.823-.082-1.333-.302-.251-.079-.425-.16-.592-.235l-.097-.046a1.417 1.417 0 00-.482-.393C1.06 5.722.82 5.354.74 5.03.538 4.594.35 4.127.35 3.66c0-.438.17-.884.334-1.315l.056-.148c.202-.433.408-.78.759-1.067.26-.243.663-.576 1.171-.674.343-.195.815-.302 1.333-.302.498 0 .985.102 1.448.302.38.09.756.375 1.12.65l.03.024a4.5 4.5 0 01.78 1.067c.183.486.276.978.276 1.463 0 .502-.098.99-.276 1.37a10.13 10.13 0 01-.78 1.16 6.63 6.63 0 01-1.15.675c-.463.2-.95.302-1.448.302z" fill="#FFFFFE" mask="url(#j)"/></g><path d="M62.193 44.174v-3.598c-1.93 0-2.987-1.254-3.172-3.691V20.168h-3.469v16.717c.091 2.135.39 3.9 1.356 5.154.964 1.253 2.78 2.135 5.285 2.135zM51.025 20.168v17.204c.091 7.778 4.044 10.796 11.168 11.376v-3.783c-2.688 0-4.71-.976-5.86-2.439-1.08-1.463-1.448-3.413-1.448-5.548v-16.81h-3.86z" fill="#FFFFFE"/><path d="M57.026 42.186l-.118-.146c-.458-.596-.786-1.33-1.005-2.247a10.379 10.379 0 01-.097-.451c.191.994.519 1.94 1.102 2.698l.118.146zm5.167 1.989c-1.203 0-2.287-.202-3.22-.599a5.784 5.784 0 01-1.041-.572c1.084.754 2.57 1.17 4.26 1.17v-3.599c-1.918 0-2.986-1.241-3.171-3.69V20.17h-3.469v16.716l.01.215-.01-.215V20.17h3.469v16.716c.185 2.449 1.253 3.69 3.172 3.69v3.6zm0 4.574c-1.847-.151-3.398-.454-4.737-.928-1.414-.5-2.553-1.175-3.485-2.062-1.938-1.845-2.902-4.589-2.946-8.387V20.17h3.86v16.808c0 2.416.474 4.23 1.448 5.55l.201.24-.201-.24c-.974-1.319-1.448-3.134-1.448-5.55V20.169h-3.86v17.203c.086 7.246 3.53 10.754 11.168 11.377v-3.785 3.785zm11.742-14.303c1.907 0 3.448 1.555 3.448 3.413 0 1.858-1.54 3.297-3.448 3.297-1.93 0-3.47-1.439-3.47-3.297s1.54-3.413 3.47-3.413m0-3.296c-1.93 0-3.653.789-5.009 1.95-1.242 1.253-2.022 2.901-2.022 4.76 0 1.857.78 3.506 2.022 4.667 1.356 1.253 3.08 2.042 5.01 2.042 1.906 0 3.746-.79 4.986-2.042 1.264-1.161 2.022-2.81 2.022-4.668s-.758-3.506-2.022-4.759c-1.24-1.161-3.08-1.95-4.987-1.95m0-.767c2.114 0 4.045.859 5.469 2.136a7.338 7.338 0 012.32 5.34c0 2.044-.872 3.877-2.32 5.248-1.424 1.37-3.355 2.136-5.469 2.136-2.113 0-4.045-.766-5.493-2.136-1.446-1.37-2.296-3.204-2.296-5.248 0-2.043.85-3.993 2.296-5.34 1.448-1.277 3.38-2.136 5.493-2.136m0-3.505c6.342 0 11.444 4.944 11.444 10.981s-5.102 10.89-11.444 10.89c-6.366 0-11.466-4.853-11.466-10.89 0-6.037 5.1-10.981 11.466-10.981" fill="#FFFFFE"/><path d="M79.531 32.64l-.126-.12-.352-.3.352.3.126.12m-.43.643l-.18-.183c-1.305-1.22-3.168-1.95-4.986-1.95l-.266.005.266-.005c1.818 0 3.681.728 4.986 1.95l.18.183m-1.73 4.843l.011-.267-.011-.28.011.28-.011.267m-10.427.456a6.471 6.471 0 01.505-3.33 7.164 7.164 0 011.477-2.152c-1.304 1.317-2.023 3.007-2.023 4.759 0 .244.015.485.04.723m6.992 2.575l-.34-.016.34.016.219-.007-.22.007m-4.744 1.606l-.264-.237-.29-.29.29.29.264.237m9.38.091l.351-.328c1.305-1.197 2.023-2.855 2.023-4.667l-.005-.272.005.272c0 1.812-.718 3.47-2.023 4.667l-.35.328m-4.636 1.716l-.434-.013.434.013a7.215 7.215 0 004.386-1.509c-.49.385-1.049.71-1.643.958a7.213 7.213 0 01-2.743.55m0 .673a8.192 8.192 0 01-2.995-.554 7.66 7.66 0 01-2.496-1.581c-.73-.69-1.3-1.49-1.693-2.371a7.058 7.058 0 01-.606-2.877c0-2.035.838-3.982 2.299-5.34 1.561-1.377 3.51-2.135 5.49-2.135-1.98 0-3.929.758-5.49 2.135-1.461 1.358-2.299 3.305-2.299 5.34 0 1.983.817 3.846 2.299 5.248 1.454 1.378 3.405 2.135 5.49 2.135 2.096 0 4.038-.757 5.47-2.135 1.497-1.417 2.322-3.28 2.322-5.248 0 1-.208 1.968-.618 2.877a7.501 7.501 0 01-1.703 2.37c-1.433 1.379-3.375 2.136-5.47 2.136m0-18.364c-6.322 0-11.466 4.926-11.466 10.98 0 6.007 5.144 10.89 11.466 10.89 6.31 0 11.445-4.883 11.445-10.89 0-6.054-5.134-10.98-11.445-10.98m0 21.87c-1.555 0-3.061-.286-4.477-.852a11.416 11.416 0 01-3.642-2.327 10.796 10.796 0 01-2.451-3.46 10.436 10.436 0 01-.896-4.25c0-1.476.302-2.911.896-4.262a10.948 10.948 0 012.45-3.492 11.43 11.43 0 013.643-2.36 11.837 11.837 0 014.477-.867c1.55 0 3.051.291 4.463.867a11.409 11.409 0 013.638 2.36 10.952 10.952 0 012.446 3.492c.596 1.35.898 2.786.898 4.262 0 1.476-.302 2.906-.898 4.25a10.782 10.782 0 01-2.446 3.46 11.412 11.412 0 01-3.638 2.327c-1.41.566-2.911.853-4.463.853m48.005-14.303c1.93 0 3.47 1.555 3.47 3.413 0 1.858-1.54 3.297-3.47 3.297-1.93 0-3.471-1.439-3.471-3.297s1.54-3.413 3.47-3.413m0-3.296c-1.93 0-3.746.789-5.009 1.95-1.242 1.253-2.022 2.901-2.022 4.76 0 1.857.78 3.506 2.022 4.667 1.263 1.253 3.08 2.042 5.01 2.042 1.93 0 3.745-.79 5.008-2.042 1.242-1.161 2-2.81 2-4.668s-.758-3.506-2-4.759a7.517 7.517 0 00-5.009-1.95m0-.767c2.114 0 4.045.859 5.469 2.136a7.338 7.338 0 012.32 5.34c0 2.044-.872 3.877-2.32 5.248-1.424 1.37-3.355 2.136-5.469 2.136-2.113 0-4.045-.766-5.493-2.136-1.446-1.37-2.296-3.204-2.296-5.248 0-2.043.85-3.993 2.296-5.34 1.448-1.277 3.38-2.136 5.493-2.136m0-3.505c6.342 0 11.444 4.944 11.444 10.981s-5.102 10.89-11.444 10.89c-6.341 0-11.443-4.853-11.443-10.89 0-6.037 5.102-10.981 11.443-10.981" fill="#FFFFFE"/><path d="M127.534 32.641l-.126-.121-.353-.299.353.299.126.121m-.415.637l-.17-.178-.12-.108.12.108.17.178m-12.172 5.302a6.46 6.46 0 01.506-3.326 7.085 7.085 0 011.477-2.154l.12-.108-.12.108c-1.305 1.317-2.022 3.008-2.022 4.76 0 .242.013.482.039.72m13.925.29c.05-.33.076-.667.076-1.01l-.005-.264.005.264c0 .343-.026.679-.076 1.01m-6.933 2.286l-.34-.015.34.015.341-.015-.34.015m0 3.413c-1.876 0-3.702-.745-5.01-2.042l-.292-.29.292.29c1.308 1.297 3.134 2.042 5.01 2.042 1.874 0 3.7-.745 5.008-2.042l.408-.418-.408.418c-1.308 1.297-3.134 2.042-5.009 2.042m0 .674a8.207 8.207 0 01-2.996-.554 7.681 7.681 0 01-2.497-1.583 7.386 7.386 0 01-1.69-2.37 7.032 7.032 0 01-.606-2.876c0-2.035.837-3.982 2.296-5.34 1.562-1.378 3.513-2.137 5.493-2.137-1.98 0-3.93.76-5.493 2.137-1.459 1.358-2.296 3.305-2.296 5.34 0 1.98.814 3.846 2.296 5.246 1.456 1.378 3.407 2.137 5.493 2.137 2.094 0 4.037-.76 5.469-2.137 1.496-1.415 2.32-3.278 2.32-5.246 0 1-.207 1.968-.616 2.876a7.525 7.525 0 01-1.704 2.37c-1.432 1.378-3.375 2.137-5.469 2.137m0-18.365c-6.31 0-11.443 4.927-11.443 10.982 0 6.004 5.132 10.89 11.443 10.89 6.31 0 11.444-4.886 11.444-10.89 0-6.055-5.135-10.982-11.444-10.982m0 21.871c-1.55 0-3.053-.287-4.463-.852a11.381 11.381 0 01-3.636-2.33 10.769 10.769 0 01-2.448-3.46 10.407 10.407 0 01-.896-4.247c0-1.478.3-2.911.896-4.263a10.895 10.895 0 012.448-3.491 11.452 11.452 0 013.636-2.362 11.77 11.77 0 014.463-.866c1.549 0 3.05.29 4.464.866a11.452 11.452 0 013.636 2.362 10.92 10.92 0 012.448 3.491 10.53 10.53 0 01.896 4.263c0 1.476-.302 2.904-.896 4.247a10.769 10.769 0 01-2.448 3.46 11.381 11.381 0 01-3.636 2.33c-1.41.565-2.914.852-4.464.852" fill="#FFFFFE"/></g></svg>